# xmcd CD database file
#
# Track frame offsets:
#	150
#	40457
#	85395
#	98872
#	147532
#	194760
#	237517
#
# Disc length: 3576 seconds
#
# Revision: 0
# Processed by: cddbd v1.4PL0 Copyright (c) Steve Scherf et al.
# Submitted via: CDex 1.50Beta7
#
DISCID=6a0df607
DTITLE=Milt Buckner and Buddy Tate - Them their eyes
DYEAR=1967
DGENRE=Jazz
TTITLE0=Mack the Knife
TTITLE1=Stompin' at the Savoy
TTITLE2=Too Heavy blues
TTITLE3=Them their eyes
TTITLE4=Margie
TTITLE5=Rose room
TTITLE6=Boucin' at dawn
EXTD=YEAR: 1967
EXTT0=
EXTT1=
EXTT2=
EXTT3=
EXTT4=
EXTT5=
EXTT6=
PLAYORDER=
